<svg xmlns="http://www.w3.org/2000/svg" viewBox="0 0 283.3 108.53"><defs><style>.cls-1{fill:#c49a6c;}.cls-2{fill:none;stroke:#231f20;stroke-miterlimit:10;stroke-width:5px;}.cls-3{fill:#231f20;}</style></defs><g id="Layer_2" data-name="Layer 2"><g id="Layer_1-2" data-name="Layer 1"><path class="cls-1" d="M41.69,55.93C41.69,73.86,9.1,87,9.1,87,2.5,76.42.9,69.27,2.5,51.59c1.62-17.85,14-22.84,28.74-25.3C43.07,24.31,41.69,38,41.69,55.93Z"/><path class="cls-1" d="M46.69,26C50.49,8.48,85.12,2.5,85.12,2.5c4.21,11.76,4.26,19.09-1.05,36-5.36,17.1-18.49,19.35-33.44,18.64C38.65,56.61,42.9,43.51,46.69,26Z"/><path class="cls-1" d="M48.56,75.85C39.8,71,41.91,51.91,41.91,51.91c6.92-.32,10.84.83,19.07,6.34s7.5,12.82,4.83,20.55C63.67,85,57.33,80.66,48.56,75.85Z"/><path class="cls-1" d="M28.33,7.05c9.25,3.81,9.27,23,9.27,23-6.84,1.08-10.86.36-19.65-4.2S9.08,14,10.87,6C12.31-.37,19.09,3.24,28.33,7.05Z"/><path class="cls-2" d="M39.73,23.41C-17.2,31.6,8.1,84.46,8.1,84.46c59.72-7.63,26.44-104.61,2.09-77"/><path class="cls-2" d="M41.69,55.93c57,7.38,46.83-50.32,46.83-50.32C29-3.06,35,99.3,65.85,79.26"/><path class="cls-3" d="M119.64,38.37a6.47,6.47,0,0,1,1.66,2.52q3.15-4.45,7.88-4.46A8.82,8.82,0,0,1,136,39.36a10.61,10.61,0,0,1,2.68,7.47q0,2.25-1.17,2.25H123.33c-.66,0-1,.28-1,.85a7.9,7.9,0,0,0,1.89,5.4A6,6,0,0,0,129,57.49a6.25,6.25,0,0,0,3.58-1.05,5.69,5.69,0,0,0,2.18-2.82l.36-1a1.4,1.4,0,0,1,1.44-1,1.72,1.72,0,0,1,1.22.47,1.54,1.54,0,0,1,.49,1.15q0,2.74-3,5a10.63,10.63,0,0,1-6.57,2.25,8.73,8.73,0,0,1-8-4.45q-2.48,4.45-8.24,4.45a9.75,9.75,0,0,1-6.25-1.86,6.1,6.1,0,0,1-2.34-5,6.85,6.85,0,0,1,1-3.56,6.53,6.53,0,0,1,2.68-2.56,16.8,16.8,0,0,1,7.65-1.4H118c.48,0,.78-.07.9-.22a2,2,0,0,0,.18-1.08,5.54,5.54,0,0,0-1.46-4,5.34,5.34,0,0,0-4-1.49,6.19,6.19,0,0,0-3.47,1c-.45.3-.67.58-.67.85a.93.93,0,0,0,.18.36,2.8,2.8,0,0,1,.58,1.53,2.15,2.15,0,0,1-.72,1.65,2.71,2.71,0,0,1-3.62-.09,2.59,2.59,0,0,1-.74-1.92,5.2,5.2,0,0,1,2.56-4.29,10.05,10.05,0,0,1,6-1.83A8.69,8.69,0,0,1,119.64,38.37Zm-.72,11.7a1.36,1.36,0,0,0-.16-.83c-.11-.11-.38-.16-.83-.16h-3.6q-6.8,0-6.8,4.41a3.48,3.48,0,0,0,1.42,2.9,5.77,5.77,0,0,0,3.67,1.1,6.1,6.1,0,0,0,5-2.07,7.26,7.26,0,0,0,1.31-4.72Zm3.78-4.64c0,.42.34.63,1,.63H134c.69,0,1-.19,1-.58a5.87,5.87,0,0,0-1.78-4.25A5.61,5.61,0,0,0,129,39.4a6.24,6.24,0,0,0-4.41,1.83A5.6,5.6,0,0,0,122.7,45.43Z"/><path class="cls-3" d="M160.32,58.57V57.18a8.18,8.18,0,0,1-7.07,3.28q-5.31,0-7.38-3.28a6.87,6.87,0,0,1-1-3.38c0-.63,0-1.95,0-4V46.11q0-6.16-1.32-6.17c-.18,0-.47,0-.86.07a7.68,7.68,0,0,1-.91.07c-1.06,0-1.59-.49-1.59-1.46s.64-1.42,1.93-1.42a12.6,12.6,0,0,1,1.33.11,10.22,10.22,0,0,0,1.33.11,11.65,11.65,0,0,0,1.39-.13l.77-.09c.93,0,1.39.57,1.39,1.71v3.87l-.13,3.33V49a17.89,17.89,0,0,0,.63,5.63q1,2.84,4.95,2.83a6.64,6.64,0,0,0,3.42-.87,4.77,4.77,0,0,0,2.07-2.32q.72-1.75.72-6.66v-5.4q-.22-2.16-1.17-2.16h-1.35c-1.05,0-1.58-.45-1.58-1.35s.59-1.53,1.76-1.53q.4,0,1.23.09c.56.06,1,.09,1.24.09a9.55,9.55,0,0,0,1.08-.09,9.55,9.55,0,0,1,1.08-.09q1.35,0,1.35,1.44a4.27,4.27,0,0,1-.09,1,42.4,42.4,0,0,0-.22,5.06v6.94c0,1.84,0,2.86,0,3.07.15,1.59.57,2.39,1.26,2.39a5.62,5.62,0,0,0,.9-.11,4.84,4.84,0,0,1,.9-.12,1.34,1.34,0,0,1,1.53,1.49q0,1.53-1.89,1.53a10.82,10.82,0,0,1-1.17-.09c-.75-.09-1.21-.14-1.39-.14l-.95.09a4,4,0,0,1-.94.14C160.74,59.88,160.32,59.44,160.32,58.57Z"/><path class="cls-3" d="M180.12,60.46a9.48,9.48,0,0,1-7.56-3.26,12.86,12.86,0,0,1-2.84-8.75q0-5.49,2.86-8.75a9.66,9.66,0,0,1,7.67-3.27,9.82,9.82,0,0,1,7.74,3.2q2.83,3.19,2.84,8.68a12.88,12.88,0,0,1-2.93,8.82A9.85,9.85,0,0,1,180.12,60.46Zm.22-21.06a6,6,0,0,0-5,2.21,10.4,10.4,0,0,0-2,6.25v.59a11,11,0,0,0,1.78,6.64,5.82,5.82,0,0,0,5,2.4,6.16,6.16,0,0,0,5.15-2.4,10.66,10.66,0,0,0,1.87-6.69Q187.18,39.4,180.34,39.4Z"/><path class="cls-3" d="M201.4,40.91v14c0,1.53.44,2.29,1.23,2.29a6,6,0,0,0,1.13-.23,5.81,5.81,0,0,1,.73-.09,1.34,1.34,0,0,1,1.5,1.53c0,1-.61,1.49-1.84,1.49a22.64,22.64,0,0,1-2.29-.18,22.66,22.66,0,0,0-2.42-.18,19.14,19.14,0,0,0-2.15.18,19,19,0,0,1-2.11.18H195c-1.26,0-1.88-.54-1.88-1.62,0-.93.51-1.4,1.54-1.4h.32a1.64,1.64,0,0,0,.41.07,10.51,10.51,0,0,0,1.31.25.93.93,0,0,0,1-.7,19.06,19.06,0,0,0,.25-3.64l0-3.16v-15a14,14,0,0,0-.13-1.8,1.25,1.25,0,0,0-1.26-1c-.09,0-.49.06-1.17.18a4.82,4.82,0,0,1-.81.09q-1.53,0-1.53-1.44c0-1,.6-1.49,1.8-1.49a6.82,6.82,0,0,1,.85.05l1.08.13a7.61,7.61,0,0,0,2.57,0,10.19,10.19,0,0,1,1.35-.14c.69,0,1,.44,1,1.31a5.06,5.06,0,0,1,0,.67Q201.4,34.59,201.4,40.91Z"/><path class="cls-3" d="M218.59,60.46A9.5,9.5,0,0,1,211,57.2a12.86,12.86,0,0,1-2.84-8.75,12.82,12.82,0,0,1,2.86-8.75,9.68,9.68,0,0,1,7.68-3.27,9.85,9.85,0,0,1,7.74,3.2c1.88,2.13,2.83,5,2.83,8.68a12.88,12.88,0,0,1-2.93,8.82A9.84,9.84,0,0,1,218.59,60.46Zm.22-21.06a6,6,0,0,0-4.95,2.21,10.33,10.33,0,0,0-2,6.25v.59a11,11,0,0,0,1.77,6.64,5.84,5.84,0,0,0,5,2.4,6.18,6.18,0,0,0,5.15-2.4,10.73,10.73,0,0,0,1.86-6.69Q225.65,39.4,218.81,39.4Z"/><path class="cls-3" d="M243.47,36.43a11.44,11.44,0,0,1,2.66.36q.23-4.41,5.13-4.41a5.48,5.48,0,0,1,3.46,1.08,3.34,3.34,0,0,1,1.4,2.75,2.61,2.61,0,0,1-.7,1.84,2.15,2.15,0,0,1-1.64.77,1.81,1.81,0,0,1-1.26-.5,1.54,1.54,0,0,1-.54-1.17,2,2,0,0,1,1-1.48,2.27,2.27,0,0,0-1.85-.9q-2.38,0-2.43,3a7.08,7.08,0,0,1,3.42,6.16,6.63,6.63,0,0,1-2.34,5.18,8.56,8.56,0,0,1-5.87,2.07A12.74,12.74,0,0,1,238.76,50a3.24,3.24,0,0,0-1.22-.32,1.47,1.47,0,0,0-1.13.57,1.92,1.92,0,0,0-.5,1.32q0,2.34,4.74,2.34h1.62a24.46,24.46,0,0,1,6.95.81,8.47,8.47,0,0,1,3.93,2.38,5.33,5.33,0,0,1,1.44,3.63,5.85,5.85,0,0,1-3,5.18,15.32,15.32,0,0,1-8.21,1.91,15.54,15.54,0,0,1-8.12-1.8,5.54,5.54,0,0,1-2.95-5q0-3.64,4.09-5.18-3.69-1.44-3.69-4.32,0-3.15,3.69-4.32a6,6,0,0,1-1.17-3.69,6.4,6.4,0,0,1,2.37-5.08A8.75,8.75,0,0,1,243.47,36.43Zm.18,20.43A12.38,12.38,0,0,0,238,57.94a3.27,3.27,0,0,0-2.07,2.93,3.21,3.21,0,0,0,2,2.9,11.74,11.74,0,0,0,5.44,1.06,12.58,12.58,0,0,0,5.7-1.08,3.11,3.11,0,0,0,.11-5.83A12,12,0,0,0,243.65,56.86Zm0-17.46a5.09,5.09,0,0,0-3.38,1.17,4.11,4.11,0,0,0-1.53,2.93v.27A4.08,4.08,0,0,0,240.05,47a5,5,0,0,0,3.51,1.22A5.44,5.44,0,0,0,247.23,47a3.88,3.88,0,0,0,1.42-3.1,4.07,4.07,0,0,0-1.44-3.2A5.27,5.27,0,0,0,243.61,39.4Z"/><path class="cls-3" d="M264.49,41.52l5.17,15.21,5.49-15a3.21,3.21,0,0,0,.23-1c0-.51-.35-.76-1-.76a3.19,3.19,0,0,0-.85.09c-.48.06-.8.09-.95.09a1.29,1.29,0,0,1-1.48-1.44c0-1,.64-1.53,1.93-1.53a7.31,7.31,0,0,1,.9.09l1.62.22a9.56,9.56,0,0,0,1.35.09,17.1,17.1,0,0,0,2.25-.2,19.05,19.05,0,0,1,2.25-.2c1.29,0,1.94.5,1.94,1.51a1.31,1.31,0,0,1-1.49,1.46,1.89,1.89,0,0,1-.67-.09,4.47,4.47,0,0,0-.81-.14c-.57,0-1.16.77-1.76,2.3l-6.12,15.3a31.26,31.26,0,0,1-3.82,7.38A9.34,9.34,0,0,1,261,68.83a7.47,7.47,0,0,1-4.61-1.39,4.11,4.11,0,0,1-1.87-3.38,3.22,3.22,0,0,1,.81-2.27,2.75,2.75,0,0,1,2.11-.88,2.48,2.48,0,0,1,1.71.61,2,2,0,0,1,.68,1.51,1.74,1.74,0,0,1-1.31,1.84,2.91,2.91,0,0,0,2.57,1,6.18,6.18,0,0,0,4.3-1.77,5.38,5.38,0,0,0,1.91-4,14.31,14.31,0,0,0-1.22-4.18l-4.95-12.51L260.57,42c-.51-1.35-1.09-2-1.75-2a6.9,6.9,0,0,0-1,.12,8.18,8.18,0,0,1-.92.11c-1.05,0-1.58-.48-1.58-1.44s.69-1.53,2.07-1.53a8.83,8.83,0,0,1,1,0l1.8.26h.36a4,4,0,0,0,.54.05,30.64,30.64,0,0,0,3.46-.21c.93-.1,1.55-.15,1.85-.15,1.26,0,1.89.49,1.89,1.48s-.57,1.49-1.71,1.49a6.37,6.37,0,0,1-.86-.09,6.26,6.26,0,0,0-.85-.09.56.56,0,0,0-.63.63A3,3,0,0,0,264.49,41.52Z"/><path class="cls-2" d="M43,50.33s-11.42,36,9.34,56.42"/></g></g></svg>